{
  "accessors": [
    {
      "bufferView": 2,
      "componentType": 5126,
      "count": 14331,
      "max": [
        0.8681600093841553,
        0.8162609934806824,
        2.4438459873199463
      ],
      "min": [
        -0.8363770246505737,
        -0.9085400104522705,
        1.3751569986343384
      ],
      "type": "VEC3"
    },
    {
      "bufferView": 2,
      "byteOffset": 171972,
      "componentType": 5126,
      "count": 14331,
      "max": [
        0.9999897480010986,
        0.9995232224464417,
        0.999993085861206
      ],
      "min": [
        -0.9995461106300354,
        -0.9987484812736511,
        -0.9999874830245972
      ],
      "type": "VEC3"
    },
    {
      "bufferView": 1,
      "componentType": 5126,
      "count": 14331,
      "max": [
        1.7640299797058105,
        1.999459981918335
      ],
      "min": [
        -0.8817449808120728,
        -0.999459981918335
      ],
      "type": "VEC2"
    },
    {
      "bufferView": 0,
      "componentType": 5125,
      "count": 82416,
      "type": "SCALAR"
    },
    {
      "bufferView": 2,
      "byteOffset": 343944,
      "componentType": 5126,
      "count": 11970,
      "max": [
        0.8040729761123657,
        1.23574697971344,
        1.5929579734802246
      ],
      "min": [
        -1.5299819707870483,
        -0.7971799969673157,
        0.06760399788618088
      ],
      "type": "VEC3"
    },
    {
      "bufferView": 2,
      "byteOffset": 487584,
      "componentType": 5126,
      "count": 11970,
      "max": [
        0.9998376965522766,
        0.9999513626098633,
        0.999977707862854
      ],
      "min": [
        -0.9999377727508545,
        -0.9999898672103882,
        -0.9999784231185913
      ],
      "type": "VEC3"
    },
    {
      "bufferView": 1,
      "byteOffset": 114648,
      "componentType": 5126,
      "count": 11970,
      "max": [
        1.9994850158691406,
        1.053313970565796
      ],
      "min": [
        -0.9994840025901794,
        -0.5263990163803101
      ],
      "type": "VEC2"
    },
    {
      "bufferView": 0,
      "byteOffset": 329664,
      "componentType": 5125,
      "count": 70656,
      "type": "SCALAR"
    },
    {
      "bufferView": 2,
      "byteOffset": 631224,
      "componentType": 5126,
      "count": 3298,
      "max": [
        0.9414610266685486,
        0.3038899898529053,
        1.169847011566162
      ],
      "min": [
        0.0644339993596077,
        -0.9234369993209839,
        0.8532620072364807
      ],
      "type": "VEC3"
    },
    {
      "bufferView": 2,
      "byteOffset": 670800,
      "componentType": 5126,
      "count": 3298,
      "max": [
        0.9995090365409851,
        0.9996795058250427,
        0.9992392659187317
      ],
      "min": [
        -0.9995090365409851,
        -0.9996795058250427,
        -0.9992392659187317
      ],
      "type": "VEC3"
    },
    {
      "bufferView": 1,
      "byteOffset": 210408,
      "componentType": 5126,
      "count": 3298,
      "max": [
        0.875,
        1.0
      ],
      "min": [
        0.125,
        0.0
      ],
      "type": "VEC2"
    },
    {
      "bufferView": 0,
      "byteOffset": 612288,
      "componentType": 5125,
      "count": 18432,
      "type": "SCALAR"
    },
    {
      "bufferView": 2,
      "byteOffset": 710376,
      "componentType": 5126,
      "count": 2736,
      "max": [
        0.6822999715805054,
        0.6069589853286743,
        1.7759449481964111
      ],
      "min": [
        -0.6351829767227173,
        -0.7088689804077148,
        1.581305980682373
      ],
      "type": "VEC3"
    },
    {
      "bufferView": 2,
      "byteOffset": 743208,
      "componentType": 5126,
      "count": 2736,
      "max": [
        0.999913215637207,
        0.9998910427093506,
        0.9999481439590454
      ],
      "min": [
        -0.9992010593414307,
        -0.9996307492256165,
        -0.3345114290714264
      ],
      "type": "VEC3"
    },
    {
      "bufferView": 1,
      "byteOffset": 236792,
      "componentType": 5126,
      "count": 2736,
      "max": [
        0.9219160079956055,
        0.9247159957885742
      ],
      "min": [
        0.02209099940955639,
        0.07528399676084518
      ],
      "type": "VEC2"
    },
    {
      "bufferView": 0,
      "byteOffset": 686016,
      "componentType": 5125,
      "count": 15600,
      "type": "SCALAR"
    },
    {
      "bufferView": 2,
      "byteOffset": 776040,
      "componentType": 5126,
      "count": 29742,
      "max": [
        1.3419530391693115,
        2.03999400138855,
        1.0299509763717651
      ],
      "min": [
        -2.850429058074951,
        -0.9928079843521118,
        -0.03223000094294548
      ],
      "type": "VEC3"
    },
    {
      "bufferView": 2,
      "byteOffset": 1132944,
      "componentType": 5126,
      "count": 29742,
      "max": [
        0.9999537467956543,
        0.9996591210365295,
        0.9999970197677612
      ],
      "min": [
        -0.9998385310173035,
        -0.9999878406524658,
        -0.9999973773956299
      ],
      "type": "VEC3"
    },
    {
      "bufferView": 1,
      "byteOffset": 258680,
      "componentType": 5126,
      "count": 29742,
      "max": [
        2.056257963180542,
        1.0457689762115479
      ],
      "min": [
        -0.20885500311851501,
        -0.05537499859929085
      ],
      "type": "VEC2"
    },
    {
      "bufferView": 0,
      "byteOffset": 748416,
      "componentType": 5125,
      "count": 159744,
      "type": "SCALAR"
    }
  ],
  "asset": {
    "extras": {
      "author": "Dumfor (https://sketchfab.com/dumfor)",
      "license": "CC-BY-4.0 (http://creativecommons.org/licenses/by/4.0/)",
      "source": "https://sketchfab.com/3d-models/perry-hp-f9e58683661040beba97371bdb90d3b2",
      "title": "Perry_HP"
    },
    "generator": "Sketchfab-12.74.0",
    "version": "2.0"
  },
  "bufferViews": [
    {
      "buffer": 0,
      "byteLength": 1387392,
      "name": "floatBufferViews",
      "target": 34963
    },
    {
      "buffer": 0,
      "byteLength": 496616,
      "byteOffset": 1387392,
      "byteStride": 8,
      "name": "floatBufferViews",
      "target": 34962
    },
    {
      "buffer": 0,
      "byteLength": 1489848,
      "byteOffset": 1884008,
      "byteStride": 12,
      "name": "floatBufferViews",
      "target": 34962
    }
  ],
  "buffers": [
    {
      "byteLength": 3373856,
      "uri": "scene.bin"
    }
  ],
  "images": [
    {
      "uri": "textures/Brown_metallicRoughness.png"
    },
    {
      "uri": "textures/Emerald_metallicRoughness.png"
    }
  ],
  "materials": [
    {
      "doubleSided": true,
      "name": "Brown",
      "pbrMetallicRoughness": {
        "baseColorFactor": [
          0.07564,
          0.03658800000000003,
          0.01633,
          1.0
        ],
        "metallicFactor": 0.0,
        "metallicRoughnessTexture": {
          "index": 0
        }
      }
    },
    {
      "doubleSided": true,
      "name": "Emerald",
      "pbrMetallicRoughness": {
        "baseColorFactor": [
          0.035793000000000005,
          0.161464,
          0.08547800000000005,
          1.0
        ],
        "metallicFactor": 0.0,
        "metallicRoughnessTexture": {
          "index": 1
        }
      }
    },
    {
      "doubleSided": true,
      "name": "Eyes",
      "pbrMetallicRoughness": {
        "baseColorFactor": [
          0.0,
          0.0,
          0.0,
          1.0
        ],
        "metallicFactor": 0.0,
        "roughnessFactor": 0.0
      }
    },
    {
      "doubleSided": true,
      "name": "material",
      "pbrMetallicRoughness": {
        "baseColorFactor": [
          0.027855617666232967,
          0.027855617666232967,
          0.027855617666232967,
          1.0
        ],
        "metallicFactor": 0.0,
        "metallicRoughnessTexture": {
          "index": 1
        }
      }
    },
    {
      "doubleSided": true,
      "name": "Pumpkin",
      "pbrMetallicRoughness": {
        "baseColorFactor": [
          0.800016,
          0.206155,
          0.036304,
          1.0
        ],
        "metallicFactor": 0.0,
        "metallicRoughnessTexture": {
          "index": 1
        }
      }
    }
  ],
  "meshes": [
    {
      "name": "Object_0",
      "primitives": [
        {
          "attributes": {
            "NORMAL": 1,
            "POSITION": 0,
            "TEXCOORD_0": 2
          },
          "indices": 3,
          "material": 0,
          "mode": 4
        }
      ]
    },
    {
      "name": "Object_1",
      "primitives": [
        {
          "attributes": {
            "NORMAL": 5,
            "POSITION": 4,
            "TEXCOORD_0": 6
          },
          "indices": 7,
          "material": 1,
          "mode": 4
        }
      ]
    },
    {
      "name": "Object_2",
      "primitives": [
        {
          "attributes": {
            "NORMAL": 9,
            "POSITION": 8,
            "TEXCOORD_0": 10
          },
          "indices": 11,
          "material": 2,
          "mode": 4
        }
      ]
    },
    {
      "name": "Object_3",
      "primitives": [
        {
          "attributes": {
            "NORMAL": 13,
            "POSITION": 12,
            "TEXCOORD_0": 14
          },
          "indices": 15,
          "material": 3,
          "mode": 4
        }
      ]
    },
    {
      "name": "Object_4",
      "primitives": [
        {
          "attributes": {
            "NORMAL": 17,
            "POSITION": 16,
            "TEXCOORD_0": 18
          },
          "indices": 19,
          "material": 4,
          "mode": 4
        }
      ]
    }
  ],
  "nodes": [
    {
      "children": [
        1
      ],
      "matrix": [
        1.0,
        0.0,
        0.0,
        0.0,
        0.0,
        2.220446049250313e-16,
        -1.0,
        0.0,
        0.0,
        1.0,
        2.220446049250313e-16,
        0.0,
        0.0,
        0.0,
        0.0,
        1.0
      ],
      "name": "Sketchfab_model"
    },
    {
      "children": [
        2,
        3,
        4,
        5,
        6
      ],
      "name": "Perry.obj.cleaner.materialmerger.gles"
    },
    {
      "mesh": 0,
      "name": "Object_2"
    },
    {
      "mesh": 1,
      "name": "Object_3"
    },
    {
      "mesh": 2,
      "name": "Object_4"
    },
    {
      "mesh": 3,
      "name": "Object_5"
    },
    {
      "mesh": 4,
      "name": "Object_6"
    }
  ],
  "samplers": [
    {
      "magFilter": 9729,
      "minFilter": 9987,
      "wrapS": 10497,
      "wrapT": 10497
    }
  ],
  "scene": 0,
  "scenes": [
    {
      "name": "Sketchfab_Scene",
      "nodes": [
        0
      ]
    }
  ],
  "textures": [
    {
      "sampler": 0,
      "source": 0
    },
    {
      "sampler": 0,
      "source": 1
    }
  ]
}
